<svg xmlns="http://www.w3.org/2000/svg" xmlns:xlink="http://www.w3.org/1999/xlink" width="500" zoomAndPan="magnify" viewBox="0 0 375 374.999991" height="500" preserveAspectRatio="xMidYMid meet" version="1.0"><defs><clipPath id="249cbc5899"><path d="M 6 7.183594 L 369 7.183594 L 369 277 L 6 277 Z M 6 7.183594 " clip-rule="nonzero"/></clipPath><clipPath id="9ca54046dd"><path d="M 186 258 L 367.953125 258 L 367.953125 375 L 186 375 Z M 186 258 " clip-rule="nonzero"/></clipPath><clipPath id="851dc0121e"><path d="M 7.203125 258 L 190 258 L 190 375 L 7.203125 375 Z M 7.203125 258 " clip-rule="nonzero"/></clipPath></defs><g clip-path="url(#249cbc5899)"><path fill="#caf7f9" d="M 362.472656 137.605469 C 362.003906 135.144531 361.046875 131.617188 359.675781 126.886719 C 359.675781 126.886719 349.304688 91.230469 328.613281 63.984375 C 286.351562 8.332031 211.820312 7.460938 188.902344 7.183594 C 185.578125 7.140625 181.078125 7.140625 174.890625 7.5 C 146.183594 9.132812 87.121094 18.773438 45.132812 73.914062 C 27.617188 96.917969 18.492188 120.746094 13.601562 136.996094 C 8.605469 162.195312 4.683594 195.707031 7.660156 234.628906 C 8.824219 249.867188 10.886719 263.824219 13.367188 276.3125 L 132.75 276.519531 C 132.625 274.515625 132.554688 272.539062 132.515625 270.644531 C 132.515625 270.644531 132.167969 254.378906 135.1875 238.847656 C 139.050781 218.972656 188.363281 132.476562 226.945312 142.722656 C 254.238281 149.96875 274.179688 205.085938 262.949219 275.496094 C 296.042969 275.96875 329.140625 276.453125 362.238281 276.921875 C 364.8125 263.644531 366.960938 248.695312 368.082031 232.277344 C 370.671875 194.671875 367.113281 162.253906 362.472656 137.605469 Z M 362.472656 137.605469 " fill-opacity="1" fill-rule="nonzero"/></g><path fill="#ffc0e7" d="M 336.953125 153.761719 C 336.300781 151.269531 330.5 129.460938 318.878906 109.378906 C 279.34375 41.027344 199.414062 39.089844 188.542969 39.007812 C 173.738281 38.910156 98.976562 38.398438 57.847656 107.359375 C 47.613281 124.523438 42.117188 141.535156 39.042969 153.761719 C 34.804688 176 31.523438 205.554688 34.113281 239.871094 C 35.121094 253.3125 36.910156 265.609375 39.042969 276.632812 L 132.984375 276.632812 C 132.859375 274.554688 132.792969 272.523438 132.734375 270.546875 C 132.347656 255.539062 134.230469 243.257812 135.355469 237.671875 C 138.234375 223.300781 141.835938 205.292969 156.304688 194.558594 C 174.652344 180.949219 202.085938 185.832031 218.621094 194.558594 C 245.207031 208.597656 260.332031 241.074219 257.394531 276.878906 C 283.914062 276.796875 310.433594 276.714844 336.953125 276.617188 C 338.363281 268.789062 340.109375 257.613281 341.3125 244.058594 C 343.363281 220.839844 346.144531 189.097656 336.953125 153.761719 Z M 336.953125 153.761719 " fill-opacity="1" fill-rule="nonzero"/><path fill="#ffffff" d="M 313.339844 174.3125 C 312.800781 172.238281 307.914062 154.023438 298.136719 137.261719 C 264.886719 80.195312 197.65625 78.578125 188.515625 78.519531 C 176.066406 78.4375 113.183594 78.007812 78.589844 135.574219 C 69.976562 149.902344 65.367188 164.105469 62.777344 174.3125 C 59.21875 192.871094 56.449219 217.546875 58.636719 246.191406 C 59.496094 257.40625 60.988281 267.683594 62.777344 276.878906 L 132.984375 276.878906 C 132.859375 274.722656 132.792969 272.59375 132.734375 270.546875 C 132.734375 270.546875 132.347656 251.792969 135.351562 236.300781 C 137.777344 223.867188 153.714844 178.863281 190.925781 174.535156 C 221.859375 170.9375 249.417969 197.574219 258.78125 224.324219 C 267.089844 248.070312 260.191406 269.453125 257.394531 276.878906 C 276.046875 276.878906 294.6875 276.878906 313.339844 276.878906 C 314.53125 270.339844 316 261.015625 317.011719 249.703125 C 318.726562 230.3125 321.082031 203.8125 313.339844 174.3125 Z M 313.339844 174.3125 " fill-opacity="1" fill-rule="nonzero"/><path fill="#ffc0e7" d="M 293.484375 193.082031 C 293.027344 191.394531 288.914062 176.566406 280.6875 162.902344 C 252.6875 116.429688 196.089844 115.117188 188.390625 115.0625 C 177.90625 114.992188 124.96875 114.648438 95.832031 161.53125 C 88.574219 173.207031 84.699219 184.769531 82.511719 193.082031 C 79.503906 208.199219 77.179688 228.292969 79.019531 251.625 C 79.742188 260.765625 81 269.136719 82.511719 276.617188 L 132.972656 276.617188 C 132.847656 274.335938 132.777344 272.082031 132.722656 269.910156 C 132.640625 266.519531 132.390625 248.789062 135.339844 233.617188 C 138.109375 219.414062 140.824219 205.457031 152.136719 193.894531 C 166.136719 179.582031 186.464844 179.152344 197.835938 178.683594 C 205.328125 178.378906 213.261719 178.046875 222.761719 181.449219 C 244.28125 189.152344 253.988281 208.875 255.996094 213.257812 C 270.050781 243.878906 252.1875 274.074219 250.457031 276.878906 C 264.789062 276.796875 279.136719 276.714844 293.46875 276.617188 C 294.464844 271.292969 295.710938 263.699219 296.558594 254.488281 C 298.023438 238.695312 300.003906 217.117188 293.484375 193.082031 Z M 293.484375 193.082031 " fill-opacity="1" fill-rule="nonzero"/><path fill="#caf7f9" d="M 268.570312 214.546875 C 268.222656 213.285156 265.066406 202.265625 258.78125 192.113281 C 237.355469 157.578125 194.054688 156.59375 188.167969 156.554688 C 180.152344 156.5 139.644531 156.25 117.363281 191.089844 C 111.8125 199.761719 108.847656 208.363281 107.171875 214.53125 C 104.875 225.761719 103.101562 240.699219 104.5 258.042969 C 105.054688 264.832031 106.011719 271.058594 107.171875 276.617188 L 132.984375 276.617188 C 132.929688 275.691406 132.875 274.542969 132.832031 273.214844 C 132.832031 273.214844 132.777344 271.609375 132.765625 269.964844 C 132.527344 243.214844 135.351562 233.550781 135.351562 233.550781 C 138.898438 221.390625 146.433594 213.507812 149.382812 210.492188 C 153.105469 206.691406 168.324219 191.15625 190.925781 192.511719 C 211.683594 193.757812 224.382812 208.378906 228.648438 213.285156 C 230.945312 215.941406 238.507812 225.097656 242.164062 239.539062 C 246.511719 256.660156 242.742188 270.878906 240.777344 276.878906 C 250.042969 276.796875 259.304688 276.714844 268.570312 276.617188 C 269.332031 272.660156 270.289062 267.019531 270.925781 260.171875 C 272.046875 248.445312 273.554688 232.402344 268.570312 214.546875 Z M 268.570312 214.546875 " fill-opacity="1" fill-rule="nonzero"/><path fill="#8c52ff" d="M 107.277344 266.335938 C 120.445312 318.464844 182.433594 347.820312 182.433594 347.820312 C 182.433594 347.820312 223.085938 292.65625 209.917969 240.527344 C 196.769531 188.394531 134.785156 159.039062 134.785156 159.039062 C 134.785156 159.039062 94.128906 214.207031 107.277344 266.335938 " fill-opacity="1" fill-rule="nonzero"/><path stroke-linecap="round" transform="matrix(0.183122, 0, 0, -0.182785, -199.908424, 656.893445)" fill="none" stroke-linejoin="round" d="M 1677.493927 2136.698913 C 1749.402166 1851.507167 2087.889243 1690.906495 2087.889243 1690.906495 C 2087.889243 1690.906495 2309.906731 1992.703261 2237.998492 2277.895006 C 2166.19691 2563.108123 1827.709833 2723.708795 1827.709833 2723.708795 C 1827.709833 2723.708795 1605.692345 2421.890659 1677.493927 2136.698913 Z M 1677.493927 2136.698913 " stroke="#ffffff" stroke-width="31.837" stroke-opacity="1" stroke-miterlimit="10"/><path fill="#8c52ff" d="M 171.828125 245.222656 C 156.792969 296.84375 195.414062 353.453125 195.414062 353.453125 C 195.414062 353.453125 258.425781 326.363281 273.460938 274.742188 C 288.515625 223.125 249.894531 166.515625 249.894531 166.515625 C 249.894531 166.515625 186.882812 193.605469 171.828125 245.222656 " fill-opacity="1" fill-rule="nonzero"/><path stroke-linecap="round" transform="matrix(0.183122, 0, 0, -0.182785, -199.908424, 656.893445)" fill="none" stroke-linejoin="round" d="M 2029.995751 2252.207447 C 1947.89109 1969.79389 2158.794905 1660.089972 2158.794905 1660.089972 C 2158.794905 1660.089972 2502.892147 1808.295649 2584.996808 2090.709206 C 2667.208126 2373.101393 2456.304311 2682.80531 2456.304311 2682.80531 C 2456.304311 2682.80531 2112.207069 2534.599633 2029.995751 2252.207447 Z M 2029.995751 2252.207447 " stroke="#ffffff" stroke-width="31.837" stroke-opacity="1" stroke-miterlimit="10"/><path fill="#8c52ff" d="M 285.839844 306.203125 C 257.308594 351.789062 189.28125 360.761719 189.28125 360.761719 C 189.28125 360.761719 167.542969 295.800781 196.074219 250.214844 C 224.621094 204.628906 292.652344 195.652344 292.652344 195.652344 C 292.652344 195.652344 314.390625 260.597656 285.839844 306.203125 " fill-opacity="1" fill-rule="nonzero"/><path stroke-linecap="round" transform="matrix(0.183122, 0, 0, -0.182785, -199.908424, 656.893445)" fill="none" stroke-linejoin="round" d="M 2652.596099 1918.589737 C 2496.791359 1669.193883 2125.304565 1620.105427 2125.304565 1620.105427 C 2125.304565 1620.105427 2006.595176 1975.499862 2162.399916 2224.895716 C 2318.289981 2474.29157 2689.798107 2523.401396 2689.798107 2523.401396 C 2689.798107 2523.401396 2808.507496 2168.092444 2652.596099 1918.589737 Z M 2652.596099 1918.589737 " stroke="#ffffff" stroke-width="31.837" stroke-opacity="1" stroke-miterlimit="10"/><path fill="#8c52ff" d="M 89.386719 306.3125 C 118.046875 351.824219 186.09375 360.617188 186.09375 360.617188 C 186.09375 360.617188 207.664062 295.617188 179.007812 250.085938 C 150.347656 204.574219 82.300781 195.78125 82.300781 195.78125 C 82.300781 195.78125 60.730469 260.796875 89.386719 306.3125 " fill-opacity="1" fill-rule="nonzero"/><path stroke-linecap="round" transform="matrix(0.183122, 0, 0, -0.182785, -199.908424, 656.893445)" fill="none" stroke-linejoin="round" d="M 1579.795993 1917.991358 C 1736.30467 1669.001547 2107.898121 1620.896142 2107.898121 1620.896142 C 2107.898121 1620.896142 2225.690259 1976.504284 2069.202913 2225.600948 C 1912.694236 2474.590759 1541.100785 2522.696164 1541.100785 2522.696164 C 1541.100785 2522.696164 1423.308648 2167.002539 1579.795993 1917.991358 Z M 1579.795993 1917.991358 " stroke="#ffffff" stroke-width="31.837" stroke-opacity="1" stroke-miterlimit="10"/><path fill="#8c52ff" d="M 299.886719 366.007812 C 251.359375 389.3125 189.0625 360.617188 189.0625 360.617188 C 189.0625 360.617188 205.449219 294.117188 253.996094 270.8125 C 302.523438 247.492188 364.820312 276.1875 364.820312 276.1875 C 364.820312 276.1875 348.429688 342.683594 299.886719 366.007812 " fill-opacity="1" fill-rule="nonzero"/><g clip-path="url(#9ca54046dd)"><path stroke-linecap="round" transform="matrix(0.183122, 0, 0, -0.182785, -199.908424, 656.893445)" fill="none" stroke-linejoin="round" d="M 2729.303909 1591.404602 C 2464.303596 1463.907115 2124.110005 1620.896142 2124.110005 1620.896142 C 2124.110005 1620.896142 2213.59534 1984.710626 2478.702309 2112.208112 C 2743.702622 2239.791081 3083.896213 2082.802054 3083.896213 2082.802054 C 3083.896213 2082.802054 2994.389547 1719.008942 2729.303909 1591.404602 Z M 2729.303909 1591.404602 " stroke="#ffffff" stroke-width="31.837" stroke-opacity="1" stroke-miterlimit="10"/></g><path fill="#8c52ff" d="M 75.269531 366.007812 C 123.796875 389.3125 186.09375 360.617188 186.09375 360.617188 C 186.09375 360.617188 169.703125 294.117188 121.160156 270.8125 C 72.632812 247.492188 10.332031 276.1875 10.332031 276.1875 C 10.332031 276.1875 26.722656 342.683594 75.269531 366.007812 " fill-opacity="1" fill-rule="nonzero"/><g clip-path="url(#851dc0121e)"><path stroke-linecap="round" transform="matrix(0.183122, 0, 0, -0.182785, -199.908424, 656.893445)" fill="none" stroke-linejoin="round" d="M 1502.704217 1591.404602 C 1767.70453 1463.907115 2107.898121 1620.896142 2107.898121 1620.896142 C 2107.898121 1620.896142 2018.391455 1984.710626 1753.305817 2112.208112 C 1488.305504 2239.791081 1148.090582 2082.802054 1148.090582 2082.802054 C 1148.090582 2082.802054 1237.597248 1719.008942 1502.704217 1591.404602 Z M 1502.704217 1591.404602 " stroke="#ffffff" stroke-width="31.837" stroke-opacity="1" stroke-miterlimit="10"/></g><path fill="#8c52ff" d="M 242 263.28125 C 242 317.039062 189.0625 360.617188 189.0625 360.617188 C 189.0625 360.617188 136.136719 317.039062 136.136719 263.28125 C 136.136719 209.527344 189.0625 165.929688 189.0625 165.929688 C 189.0625 165.929688 242 209.527344 242 263.28125 " fill-opacity="1" fill-rule="nonzero"/><path stroke-linecap="round" transform="matrix(0.183122, 0, 0, -0.182785, -199.908424, 656.893445)" fill="none" stroke-linejoin="round" d="M 2413.193498 2153.389415 C 2413.193498 1859.307466 2124.110005 1620.896142 2124.110005 1620.896142 C 2124.110005 1620.896142 1835.090506 1859.307466 1835.090506 2153.389415 C 1835.090506 2447.492735 2124.110005 2685.989542 2124.110005 2685.989542 C 2124.110005 2685.989542 2413.193498 2447.492735 2413.193498 2153.389415 Z M 2413.193498 2153.389415 " stroke="#ffffff" stroke-width="31.837" stroke-opacity="1" stroke-miterlimit="10"/></svg>