<svg xmlns="http://www.w3.org/2000/svg" xmlns:xlink="http://www.w3.org/1999/xlink" width="500" zoomAndPan="magnify" viewBox="0 0 375 374.999991" height="500" preserveAspectRatio="xMidYMid meet" version="1.0"><defs><g/></defs><g fill="#63c3ef" fill-opacity="1"><g transform="translate(-14.647926, 299.561135)"><g><path d="M 11.101562 -60.679688 C 11.101562 -5.550781 60.679688 0 85.84375 0 L 190.183594 0 C 208.683594 0 220.523438 -9.988281 220.523438 -28.859375 C 220.523438 -47.359375 212.015625 -58.832031 211.644531 -81.773438 C 211.644531 -81.773438 211.644531 -100.273438 219.414062 -110.632812 C 219.042969 -111.003906 206.835938 -115.074219 192.402344 -115.074219 C 171.3125 -115.074219 145.414062 -106.191406 145.414062 -64.011719 C 145.414062 -42.921875 145.414062 -14.800781 115.074219 -15.171875 C 94.351562 -15.539062 87.320312 -32.5625 87.320312 -55.132812 C 87.320312 -119.511719 219.414062 -123.582031 219.414062 -202.765625 C 219.414062 -242.355469 194.253906 -259.003906 165.023438 -259.003906 L 106.933594 -259.003906 C 101.011719 -259.003906 94.351562 -259.003906 87.320312 -259.375 C 54.390625 -259.375 13.320312 -255.304688 13.320312 -210.164062 C 13.320312 -187.222656 28.121094 -170.945312 58.460938 -170.945312 C 90.652344 -170.945312 96.941406 -200.914062 96.941406 -200.914062 C 96.941406 -200.914062 80.660156 -207.574219 80.660156 -219.414062 C 80.660156 -231.253906 90.28125 -244.207031 116.921875 -244.207031 C 140.601562 -244.207031 151.332031 -231.996094 151.332031 -217.195312 C 151.332031 -163.542969 11.101562 -153.554688 11.101562 -60.679688 Z M 11.101562 -60.679688 "/></g></g></g><path stroke-linecap="butt" transform="matrix(1.387564, 0, 0, 1.387564, -14.647926, -43.167283)" fill="none" stroke-linejoin="miter" d="M 8.008831 203.2502 C 8.008831 243.028758 43.747599 247.000984 61.846421 247.000984 L 137.04 247.000984 C 150.38679 247.000984 158.913984 239.774405 158.913984 226.233367 C 158.913984 212.886577 152.796588 204.61838 152.534776 188.081986 C 152.534776 188.081986 152.534776 174.735196 158.134178 167.24962 C 157.872366 166.987808 149.086175 164.060016 138.667177 164.060016 C 123.434213 164.060016 104.814583 170.439224 104.814583 200.843218 C 104.814583 216.076181 104.814583 236.322989 82.940599 236.063992 C 67.966632 235.802179 62.952788 223.561757 62.952788 207.287175 C 62.952788 160.870412 158.134178 157.939805 158.134178 100.845047 C 158.134178 72.330042 139.970608 60.351432 118.941179 60.351432 L 77.0822 60.351432 C 72.783413 60.351432 67.966632 60.351432 62.952788 60.08962 C 39.192631 60.08962 9.571259 63.020227 9.571259 95.507457 C 9.571259 112.041036 20.246439 123.825398 42.120423 123.825398 C 65.362586 123.825398 69.855621 102.213227 69.855621 102.213227 C 69.855621 102.213227 58.136008 97.393631 58.136008 88.866437 C 58.136008 80.336427 65.03884 71.026612 84.244029 71.026612 C 101.298417 71.026612 109.045805 79.815618 109.045805 90.493613 C 109.045805 129.165804 8.008831 136.324818 8.008831 203.2502 Z M 8.008831 203.2502 " stroke="#efeee8" stroke-width="5.000006" stroke-opacity="1" stroke-miterlimit="4"/><g fill="#ec709a" fill-opacity="1"><g transform="translate(111.244891, 299.561135)"><g><path d="M 105.824219 0 L 105.824219 -32.191406 C 105.824219 -86.953125 167.984375 -72.890625 167.984375 -110.261719 C 167.984375 -139.121094 118.03125 -140.972656 118.03125 -185.003906 C 118.03125 -205.722656 130.984375 -244.207031 143.933594 -244.207031 C 175.015625 -244.207031 178.714844 -126.914062 178.714844 0 L 265.664062 0 C 265.664062 -71.78125 251.605469 -259.003906 148.003906 -259.003906 L 141.34375 -259.003906 C 105.453125 -259.003906 45.882812 -220.15625 45.882812 -168.355469 C 45.882812 -120.253906 83.992188 -116.183594 115.074219 -115.8125 C 121.734375 -115.8125 128.394531 -116.183594 133.941406 -116.183594 C 145.414062 -116.183594 153.183594 -115.441406 153.183594 -109.890625 C 153.183594 -93.242188 11.101562 -109.890625 11.101562 -11.839844 L 11.101562 0 Z M 105.824219 0 "/></g></g></g><path stroke-linecap="butt" transform="matrix(1.387564, 0, 0, 1.387564, 111.244891, -43.167283)" fill="none" stroke-linejoin="miter" d="M 76.236065 247.000984 L 76.236065 223.823569 C 76.236065 184.306824 121.0904 194.461194 121.0904 167.508617 C 121.0904 146.741001 85.08982 145.375636 85.08982 113.671028 C 85.08982 98.76181 94.399636 71.026612 103.709451 71.026612 C 126.104244 71.026612 128.773039 155.530007 128.773039 247.000984 L 191.467199 247.000984 C 191.467199 195.243816 181.310013 60.351432 106.637243 60.351432 L 101.885211 60.351432 C 75.974253 60.351432 33.07084 88.345627 33.07084 125.649638 C 33.07084 160.349603 60.544226 163.277395 82.941834 163.539207 C 87.758615 163.539207 92.510647 163.277395 96.547621 163.277395 C 104.815818 163.277395 110.415221 163.798204 110.415221 167.770429 C 110.415221 179.813789 8.007252 167.770429 8.007252 238.470974 L 8.007252 247.000984 Z M 76.236065 247.000984 " stroke="#efeee8" stroke-width="5.000006" stroke-opacity="1" stroke-miterlimit="4"/></svg>