<?xml version="1.0" standalone="no"?>
<!DOCTYPE svg PUBLIC "-//W3C//DTD SVG 20010904//EN"
 "http://www.w3.org/TR/2001/REC-SVG-20010904/DTD/svg10.dtd">
<svg version="1.0" xmlns="http://www.w3.org/2000/svg"
 width="700.000000pt" height="700.000000pt" viewBox="0 0 700.000000 700.000000"
 preserveAspectRatio="xMidYMid meet">
<metadata>
Created by potrace 1.14, written by Peter Selinger 2001-2017
</metadata>
<g transform="translate(0.000000,700.000000) scale(0.100000,-0.100000)"
fill="#000000" stroke="none">
<path d="M0 6284 l0 -714 1878 -1 c1032 0 1945 -1 2029 -1 l152 -1 -20 -26
c-12 -14 -49 -55 -82 -91 -34 -36 -123 -130 -197 -209 -74 -79 -148 -158 -165
-176 -43 -46 -148 -157 -326 -345 -86 -91 -172 -181 -190 -201 -124 -133 -151
-159 -177 -173 -16 -8 -56 -45 -88 -82 -32 -37 -68 -77 -79 -89 -11 -13 -31
-36 -44 -51 -13 -16 -43 -49 -65 -74 -23 -25 -72 -81 -111 -125 -38 -43 -99
-110 -135 -149 -36 -38 -76 -82 -90 -97 -14 -15 -75 -81 -136 -146 -61 -65
-123 -131 -137 -147 -143 -156 -186 -203 -212 -234 -16 -19 -41 -47 -55 -61
-14 -15 -59 -65 -100 -112 -117 -131 -158 -176 -260 -282 -131 -138 -132 -138
-275 -261 -142 -123 -187 -171 -187 -199 0 -19 -8 -29 -32 -38 -40 -16 -432
-410 -830 -834 l-66 -70 0 -648 0 -647 3498 2 3497 3 -1 65 c-4 208 -4 431 2
803 l6 417 -68 1 c-38 1 -103 3 -144 4 -102 4 -449 14 -710 20 -455 12 -633
14 -875 14 -923 -3 -1344 -2 -1655 4 -584 11 -915 19 -917 21 -2 1 29 36 68
77 145 152 317 335 355 379 21 24 49 56 62 70 13 14 30 38 38 53 14 26 14 30
-3 43 -16 13 -15 14 14 12 72 -5 83 31 98 336 3 64 8 124 9 133 2 10 7 43 11
73 10 76 49 188 102 295 68 137 117 197 237 288 71 54 77 45 9 -11 -164 -137
-292 -345 -328 -532 -42 -223 -7 -470 91 -649 152 -278 378 -451 714 -549 130
-37 483 -41 710 -7 231 35 400 108 778 336 117 71 217 129 221 129 10 0 81
-81 160 -180 175 -220 335 -330 460 -316 93 11 193 60 266 131 90 87 120 152
112 249 -3 39 -28 166 -55 281 -82 347 -79 320 -108 1065 -3 91 -8 167 -10
169 -5 5 -42 -7 -304 -99 -96 -33 -236 -81 -310 -106 -74 -25 -160 -54 -191
-65 l-56 -20 -12 -97 c-25 -194 -66 -359 -116 -468 -52 -113 -217 -269 -361
-342 -80 -40 -205 -78 -300 -89 -89 -11 -374 -7 -437 7 -68 14 -160 73 -228
148 -100 109 -129 191 -123 346 6 176 34 236 155 338 109 91 110 91 814 268
176 45 378 97 449 116 72 20 137 37 145 39 9 2 39 10 66 18 517 160 808 283
1092 466 l73 46 0 223 c0 123 -3 221 -7 219 -13 -7 -114 -54 -178 -82 -223
-101 -669 -249 -1095 -364 -102 -28 -201 -55 -220 -61 -30 -9 -509 -127 -550
-135 -8 -2 -135 -31 -282 -64 -147 -34 -271 -61 -274 -61 -4 0 13 21 37 48 24
26 88 95 142 154 54 59 106 115 115 126 84 96 229 248 331 347 226 217 341
336 341 350 0 8 -8 19 -17 24 -14 8 -9 9 22 6 22 -2 66 -7 98 -10 72 -8 179
-60 235 -116 53 -52 88 -102 143 -207 24 -46 51 -87 59 -92 9 -5 58 3 125 20
192 50 629 186 674 209 33 18 34 46 5 118 -53 132 -106 214 -203 311 -114 115
-260 199 -470 273 l-91 31 49 37 c27 20 75 57 107 82 33 25 97 72 144 104 47
31 87 60 90 64 10 14 130 100 270 196 80 54 150 103 155 110 11 13 12 662 2
689 -3 8 -2 16 3 18 5 2 11 156 12 351 l3 347 -2830 0 c-1613 0 -2824 -4
-2816 -9 8 -5 -85 -7 -220 -5 -129 2 -386 6 -571 8 l-338 4 0 -714z m3890
-1508 c0 -2 -7 -7 -16 -10 -8 -3 -12 -2 -9 4 6 10 25 14 25 6z m-40 -21 c0 -2
-20 -18 -44 -34 -25 -17 -51 -37 -58 -43 -110 -99 -107 -97 -53 -40 28 29 73
68 100 87 53 37 55 37 55 30z m1293 -292 c-7 -2 -21 -2 -30 0 -10 3 -4 5 12 5
17 0 24 -2 18 -5z m-1639 -75 c-9 -18 -19 -35 -22 -38 -8 -9 10 45 20 58 18
22 19 13 2 -20z m684 -350 c-133 -161 -241 -250 -315 -261 -26 -4 -170 16
-179 25 -1 2 51 3 115 3 114 0 119 1 160 30 24 16 91 80 149 142 58 62 108
113 110 113 2 0 -16 -24 -40 -52z m-518 -221 c13 -5 13 -6 -1 -6 -8 -1 -24 6
-35 15 -19 15 -19 15 1 6 11 -5 27 -12 35 -15z m-867 -1794 c-7 -2 -21 -2 -30
0 -10 3 -4 5 12 5 17 0 24 -2 18 -5z m95 -10 c-10 -2 -26 -2 -35 0 -10 3 -2 5
17 5 19 0 27 -2 18 -5z"/>
</g>
</svg>
